<?xml version="1.0" encoding="UTF-8" standalone="no"?>
<!DOCTYPE svg PUBLIC "-//W3C//DTD SVG 1.1//EN" "http://www.w3.org/Graphics/SVG/1.1/DTD/svg11.dtd">
<svg width="100%" height="100%" viewBox="0 0 1000 200" version="1.1" xmlns="http://www.w3.org/2000/svg" xmlns:xlink="http://www.w3.org/1999/xlink" xml:space="preserve" xmlns:serif="http://www.serif.com/" style="fill-rule:evenodd;clip-rule:evenodd;stroke-linejoin:round;stroke-miterlimit:2;">
    <g transform="matrix(1,0,0,1,0.521258,0)">
        <g transform="matrix(0.688563,0,0,-0.468335,-8.69686,514.075)">
            <g transform="matrix(1.58821,0,0,-2.13522,-20.5946,1097.67)">
                <path d="M46.35,101.5L393.048,100L46.35,98.5C45.593,98.5 44.978,99.172 44.978,100C44.978,100.828 45.593,101.5 46.35,101.5Z"/>
            </g>
            <g transform="matrix(-1.58821,0,0,-2.13522,1496.64,1097.67)">
                <path d="M46.35,98.5L393.048,100L46.35,101.5C45.593,101.5 44.978,100.828 44.978,100C44.978,99.172 45.593,98.5 46.35,98.5Z"/>
            </g>
        </g>
        <g transform="matrix(1,0,0,1,10.2461,0.267848)">
            <g>
                <g transform="matrix(0.154386,0.00259192,-0.0297458,0.141914,439.333,-5.32149)">
                    <path d="M419.91,109.691C419.91,109.691 417.076,156.738 413.806,233.013C412.282,268.551 410.518,310.274 409.321,356.657C408.419,391.592 407.946,429.124 407.601,468.399C406.881,550.473 406.959,640.146 407.033,729.817C407.085,792.962 407.342,856.148 407.748,916.767C408.037,959.972 408.202,1001.83 408.942,1041.54C409.557,1074.56 410.508,1106.04 411.539,1135.46C412.986,1176.74 414.722,1213.83 416.203,1245.36C419.413,1313.74 421.869,1355.46 421.869,1355.46C421.869,1355.46 424.195,1314.69 427.192,1247.55C428.574,1216.59 430.194,1180.17 431.512,1139.44C432.452,1110.41 433.304,1079.29 433.816,1046.5C434.431,1007.06 434.464,965.236 434.618,922.12C434.834,861.625 434.892,798.502 434.746,735.338C434.538,645.64 434.333,555.942 433.354,473.53C432.886,434.093 432.294,396.348 431.282,361.032C429.939,314.143 428.042,271.69 426.406,235.523C422.893,157.897 419.91,109.691 419.91,109.691Z"/>
                </g>
                <g transform="matrix(0.154386,0.00259192,-0.0297458,0.141914,454.263,-5.32149)">
                    <path d="M419.91,109.691C419.91,109.691 417.076,156.738 413.806,233.013C412.282,268.551 410.518,310.274 409.321,356.657C408.419,391.592 407.946,429.124 407.601,468.399C406.881,550.473 406.959,640.146 407.033,729.817C407.085,792.962 407.342,856.148 407.748,916.767C408.037,959.972 408.202,1001.83 408.942,1041.54C409.557,1074.56 410.508,1106.04 411.539,1135.46C412.986,1176.74 414.722,1213.83 416.203,1245.36C419.413,1313.74 421.869,1355.46 421.869,1355.46C421.869,1355.46 424.195,1314.69 427.192,1247.55C428.574,1216.59 430.194,1180.17 431.512,1139.44C432.452,1110.41 433.304,1079.29 433.816,1046.5C434.431,1007.06 434.464,965.236 434.618,922.12C434.834,861.625 434.892,798.502 434.746,735.338C434.538,645.64 434.333,555.942 433.354,473.53C432.886,434.093 432.294,396.348 431.282,361.032C429.939,314.143 428.042,271.69 426.406,235.523C422.893,157.897 419.91,109.691 419.91,109.691Z"/>
                </g>
                <g transform="matrix(0.154924,0,-0.0324506,0.154924,437.624,-3.77663)">
                    <path d="M468.479,615.371C422.058,603.233 369.93,598.656 312.286,603.97C286.356,606.36 259.22,610.534 231.04,617.179L217.949,620.216L232.219,624.654C277.571,639.23 321,645.633 361.87,645.861C402.16,646.085 439.976,640.194 474.572,629.499C487.191,633.452 499.343,637.98 511.009,643.004C615.174,687.859 680.416,773.845 701.401,856.741C713.622,903.429 712.841,945.551 703.12,982.964C692.851,1022.48 672.417,1056.78 644.55,1085C589.019,1141.23 505.254,1173.91 418.689,1176.33C350.153,1178.5 302.526,1171.42 268.758,1160.18C214.534,1142.14 196.225,1113.45 184.858,1095.73C195.683,1114.11 213.222,1143.7 268.032,1164.36C302.151,1177.22 350.693,1186.57 421.13,1187.5C512.01,1188.38 601.503,1158.04 661.478,1101.59C692.657,1072.25 716.041,1035.9 727.316,993.355C738.104,952.649 737.6,906.271 723.599,855.413C698.391,766.637 626.609,675.501 514.112,630.388C507.504,627.738 500.756,625.252 493.861,622.938C509.465,617.115 524.339,610.296 538.405,602.618C604.056,566.782 652.479,512.76 675.694,455.323C688.094,424.643 693.061,392.872 690.557,362.68C682.724,282.339 643.709,230.833 596.345,198.452C533.004,155.146 454.487,146.755 418.491,148.152C384.058,149.599 348.937,161.501 316.138,177.919C264.566,203.735 218.733,240.478 190.343,263.258C219.884,242.084 267.551,207.903 320.492,184.766C353.14,170.497 387.762,160.451 421.328,160.549C455.343,160.54 529.011,170.88 587.328,213.096C628.446,242.861 661.465,288.996 666.376,359.712C668.662,386.908 663.572,415.224 652.894,443.119C631.817,498.181 588.272,551.245 527.528,587.501C509.287,598.388 489.556,607.826 468.479,615.371ZM447.62,622.095C407.49,612.576 363.095,608.664 314.697,612.253C293.405,613.832 271.4,617.001 248.631,621.656C287.408,631.859 324.566,636.169 359.587,635.383C390.764,634.683 420.209,629.975 447.62,622.095Z"/>
                </g>
                <g transform="matrix(0.154924,0,-0.0324506,0.154924,454.062,-3.77812)">
                    <path d="M468.479,615.371C422.058,603.233 369.93,598.656 312.286,603.97C286.356,606.36 259.22,610.534 231.04,617.179L217.949,620.216L232.219,624.654C277.571,639.23 321,645.633 361.87,645.861C402.16,646.085 439.976,640.194 474.572,629.499C487.191,633.452 499.343,637.98 511.009,643.004C615.174,687.859 680.416,773.845 701.401,856.741C713.622,903.429 712.841,945.551 703.12,982.964C692.851,1022.48 672.417,1056.78 644.55,1085C589.019,1141.23 505.254,1173.91 418.689,1176.33C350.153,1178.5 302.526,1171.42 268.758,1160.18C214.534,1142.14 196.225,1113.45 184.858,1095.73C195.683,1114.11 213.222,1143.7 268.032,1164.36C302.151,1177.22 350.693,1186.57 421.13,1187.5C512.01,1188.38 601.503,1158.04 661.478,1101.59C692.657,1072.25 716.041,1035.9 727.316,993.355C738.104,952.649 737.6,906.271 723.599,855.413C698.391,766.637 626.609,675.501 514.112,630.388C507.504,627.738 500.756,625.252 493.861,622.938C509.465,617.115 524.339,610.296 538.405,602.618C604.056,566.782 652.479,512.76 675.694,455.323C688.094,424.643 693.061,392.872 690.557,362.68C682.724,282.339 643.709,230.833 596.345,198.452C533.004,155.146 454.487,146.755 418.491,148.152C384.058,149.599 348.937,161.501 316.138,177.919C264.566,203.735 218.733,240.478 190.343,263.258C219.884,242.084 267.551,207.903 320.492,184.766C353.14,170.497 387.762,160.451 421.328,160.549C455.343,160.54 529.011,170.88 587.328,213.096C628.446,242.861 661.465,288.996 666.376,359.712C668.662,386.908 663.572,415.224 652.894,443.119C631.817,498.181 588.272,551.245 527.528,587.501C509.287,598.388 489.556,607.826 468.479,615.371ZM447.62,622.095C407.49,612.576 363.095,608.664 314.697,612.253C293.405,613.832 271.4,617.001 248.631,621.656C287.408,631.859 324.566,636.169 359.587,635.383C390.764,634.683 420.209,629.975 447.62,622.095Z"/>
                </g>
            </g>
        </g>
    </g>
</svg>
