<?xml version="1.0" encoding="UTF-8" standalone="no"?>
<!DOCTYPE svg PUBLIC "-//W3C//DTD SVG 1.1//EN" "http://www.w3.org/Graphics/SVG/1.1/DTD/svg11.dtd">
<svg width="100%" height="100%" viewBox="0 0 100 100" version="1.1" xmlns="http://www.w3.org/2000/svg" xmlns:xlink="http://www.w3.org/1999/xlink" xml:space="preserve" xmlns:serif="http://www.serif.com/" style="fill-rule:evenodd;clip-rule:evenodd;stroke-linejoin:round;stroke-miterlimit:2;">
    <g transform="matrix(-1,-1.22465e-16,1.22465e-16,-1,544.069,754.537)">
        <path d="M449.024,730.899C452.753,743.027 472.476,735.253 472.476,735.253C466.487,725.067 445.299,718.775 449.024,730.899Z" style="fill:rgb(8,6,5);fill-rule:nonzero;"/>
    </g>
    <g transform="matrix(-1,-1.22465e-16,1.22465e-16,-1,544.069,754.537)">
        <path d="M466.474,703.722C453.382,712.949 481.695,735.408 481.695,735.408C485.574,732.171 479.566,694.496 466.474,703.722Z" style="fill:rgb(8,6,5);fill-rule:nonzero;"/>
    </g>
    <g transform="matrix(-1,-1.22465e-16,1.22465e-16,-1,544.069,754.537)">
        <path d="M515.671,735.223C515.671,735.223 535.404,742.975 539.117,730.845C542.829,718.715 521.648,725.034 515.671,735.223Z" style="fill:rgb(8,6,5);fill-rule:nonzero;"/>
    </g>
    <g transform="matrix(-1,-1.22465e-16,1.22465e-16,-1,544.069,754.537)">
        <path d="M521.633,703.689C508.532,694.479 502.572,732.161 506.454,735.393C506.454,735.393 534.738,712.897 521.633,703.689Z" style="fill:rgb(8,6,5);fill-rule:nonzero;"/>
    </g>
    <g transform="matrix(-1,-1.22465e-16,1.22465e-16,-1,544.069,754.537)">
        <path d="M494.027,671.368C494.027,671.368 485.368,688.448 485.482,704.017C485.374,719.598 494.065,736.693 494.065,736.693L494.082,736.693C494.082,736.693 502.741,719.612 502.627,704.043C502.735,688.462 494.044,671.368 494.044,671.368L494.027,671.368Z" style="fill:rgb(8,6,5);fill-rule:nonzero;"/>
    </g>
</svg>
