<?xml version="1.0" encoding="UTF-8" standalone="no"?>
<!DOCTYPE svg PUBLIC "-//W3C//DTD SVG 1.1//EN" "http://www.w3.org/Graphics/SVG/1.1/DTD/svg11.dtd">
<svg width="100%" height="100%" viewBox="0 0 500 50" version="1.1" xmlns="http://www.w3.org/2000/svg" xmlns:xlink="http://www.w3.org/1999/xlink" xml:space="preserve" xmlns:serif="http://www.serif.com/" style="fill-rule:evenodd;clip-rule:evenodd;stroke-linecap:round;stroke-linejoin:round;stroke-miterlimit:1.5;">
    <g transform="matrix(1,0,0,1,21.2796,12.5)">
        <g transform="matrix(0.362748,-1.79658e-16,1.07612e-16,-0.0881446,252.639,90.3935)">
            <path d="M598.245,883.575C598.245,883.262 598.072,883.008 597.859,883.008L47.284,883.008C47.071,883.008 46.898,883.262 46.898,883.575L46.898,884.71C46.898,885.023 47.071,885.277 47.284,885.277L597.859,885.277C598.072,885.277 598.245,885.023 598.245,884.71L598.245,883.575Z" style="stroke:black;stroke-width:3.4px;"/>
        </g>
        <g transform="matrix(0.362748,-1.79658e-16,1.07612e-16,-0.0881446,-29.2228,90.3935)">
            <path d="M598.245,883.575C598.245,883.262 598.072,883.008 597.859,883.008L47.284,883.008C47.071,883.008 46.898,883.262 46.898,883.575L46.898,884.71C46.898,885.023 47.071,885.277 47.284,885.277L597.859,885.277C598.072,885.277 598.245,885.023 598.245,884.71L598.245,883.575Z" style="stroke:black;stroke-width:3.4px;"/>
        </g>
        <g transform="matrix(0.275104,0,0,0.272495,91.3254,-14.7272)">
            <path d="M544.244,35.014C543.074,35.754 543.13,35.251 541.794,37.324C535.933,46.103 523.909,66.292 512.014,83.991C505.219,93.702 498.424,102.138 491.63,110.505C491.626,110.509 491.623,110.513 491.619,110.517C486.139,116.735 479.763,122.059 472.721,126.716C463.452,132.042 455.453,134.501 446.184,133.58C441.346,132.351 441.834,126.863 449.491,117.565C454.201,112.524 463.624,105.963 470.94,104.83C474.81,104.446 477.807,104.585 480.376,104.982C486.047,106.234 489.339,108.218 491.624,110.511C496.853,115.853 519.908,140.321 554.054,160.129C560.215,163.703 567.262,167.988 574.286,170.685C579.716,172.769 585.625,173.66 588.023,174.077" style="fill:none;stroke:black;stroke-width:3.65px;"/>
            <path d="M410.836,165.345C410.836,165.345 423.282,155.693 429.237,150.546C434.981,145.583 441.697,139.646 448.499,132.797C449.759,131.528 460.381,121.321 470.044,110.735C474.647,105.694 484.39,93.761 492.27,83.341C495.622,78.908 501.553,69.135 507.732,59.759C512.854,51.988 518.602,36.879 520.985,27.281C523.372,17.663 522.386,13.565 521.279,13.625C517.102,21.476 510.971,46.198 507.732,59.759C505.953,67.21 496.461,94.006 488.319,135.292C486.002,147.04 480.232,182.736 479.478,185.84" style="fill:none;stroke:black;stroke-width:3.65px;"/>
        </g>
    </g>
</svg>
