<?xml version="1.0" encoding="UTF-8" standalone="no"?>
<!DOCTYPE svg PUBLIC "-//W3C//DTD SVG 1.1//EN" "http://www.w3.org/Graphics/SVG/1.1/DTD/svg11.dtd">
<svg width="100%" height="100%" viewBox="0 0 1000 100" version="1.1" xmlns="http://www.w3.org/2000/svg" xmlns:xlink="http://www.w3.org/1999/xlink" xml:space="preserve" xmlns:serif="http://www.serif.com/" style="fill-rule:evenodd;clip-rule:evenodd;stroke-linejoin:round;stroke-miterlimit:2;">
    <g transform="matrix(1,0,0,1,6.55124,-50)">
        <g>
            <g transform="matrix(-1.27324,0,0,0.63137,494.251,36.863)">
                <path d="M46.35,98.5L393.048,100L46.35,101.5L44.978,101.5L44.978,98.5L46.35,98.5Z"/>
            </g>
            <g transform="matrix(1.27324,0,0,0.63137,492.646,36.863)">
                <path d="M46.35,98.5L393.048,100L46.35,101.5L44.978,101.5L44.978,98.5L46.35,98.5Z"/>
            </g>
            <g transform="matrix(0.510534,0,0,0.510534,238.472,49.2327)">
                <g>
                    <g transform="matrix(1.09023,0,0,1.09023,-45.0611,-8.99839)">
                        <path d="M491.379,107.642C490.234,106.728 488.885,105.878 487.239,105.137C485.471,104.341 483.349,103.68 480.778,103.161C480.739,103.153 480.7,103.145 480.661,103.139C479.161,102.95 477.528,102.839 475.681,102.872C474.2,102.898 472.581,103.006 470.782,103.235C470.753,103.238 470.724,103.242 470.695,103.246C467.608,103.817 464.183,105.295 460.884,107.246C458.189,108.839 455.592,110.747 453.308,112.645C451.562,114.096 449.991,115.532 448.755,116.877C448.74,116.892 448.727,116.908 448.713,116.924C444.254,122.22 442.151,126.386 441.905,129.252C441.654,132.172 443.056,134.028 445.876,134.793C445.936,134.808 445.998,134.819 446.06,134.825C451.059,135.407 455.714,135.023 460.4,133.769C464.672,132.626 468.964,130.744 473.569,128.192C473.6,128.174 473.63,128.155 473.66,128.136C477.261,125.831 480.702,123.365 483.936,120.68C486.677,118.404 489.265,115.971 491.7,113.382C496.136,117.82 506.044,127.615 520.24,138.591C529.637,145.857 540.919,153.62 553.702,160.736C557.47,162.828 561.565,165.172 565.781,167.268C568.553,168.646 571.375,169.916 574.19,170.936C576.49,171.769 578.868,172.391 581.036,172.859C584.035,173.507 586.623,173.861 588.023,174.077C586.635,173.808 584.065,173.357 581.098,172.597C578.966,172.051 576.631,171.346 574.382,170.434C571.632,169.317 568.884,167.953 566.189,166.483C562.07,164.237 558.08,161.747 554.406,159.522C541.98,152.017 531.089,143.892 521.999,136.389C508.079,124.9 498.435,114.828 494.259,110.419C497.361,106.547 500.481,102.66 503.551,98.592C506.826,94.251 510.04,89.707 513.278,84.875C513.283,84.867 513.289,84.859 513.294,84.851C516.319,80.113 519.491,75.044 522.603,69.961C531.311,55.74 539.634,41.524 543.776,34.933C538.755,42.03 527.943,58.296 517.406,73.551C515.146,76.824 512.909,80.054 510.734,83.131C508.05,86.801 505.342,90.292 502.659,93.683C500.135,96.875 497.615,99.961 495.122,103.022C493.866,104.565 492.623,106.106 491.379,107.642ZM488.809,110.669C487.905,109.977 486.846,109.332 485.582,108.736C484.044,108.012 482.22,107.343 479.976,106.804C478.674,106.571 477.254,106.399 475.646,106.339C474.276,106.287 472.774,106.305 471.1,106.425C467.643,106.876 463.674,108.56 459.986,110.716C457.788,112.002 455.678,113.435 453.852,114.91C452.47,116.025 451.256,117.167 450.246,118.233C447.117,122.119 445.238,125.299 444.516,127.767C444.074,129.281 444.073,130.461 444.633,131.283C444.995,131.815 445.6,132.14 446.389,132.341C451.016,132.713 455.299,132.209 459.586,130.912C463.57,129.707 467.55,127.809 471.809,125.278C475.208,122.953 478.433,120.459 481.486,117.799C484.063,115.555 486.514,113.189 488.809,110.669Z"/>
                    </g>
                    <g transform="matrix(1.09023,0,0,1.09023,-45.0611,-8.99839)">
                        <path d="M506.211,59.939C502.438,65.443 498.777,71.027 495.736,75.508C493.832,78.314 492.175,80.678 490.895,82.302C487.38,86.815 483.479,91.594 479.863,95.997C478.305,97.895 476.799,99.723 475.396,101.427C472.663,104.746 470.315,107.582 468.639,109.452L468.638,109.452C465.14,113.425 461.504,117.34 458.264,120.776C452.746,126.63 448.359,131.073 447.584,131.888C444.47,135.177 441.37,138.257 438.38,141.137C435.012,144.382 431.791,147.367 428.826,150.07L428.825,150.07C426.921,151.806 424.336,154.043 421.718,156.267C416.339,160.837 410.836,165.345 410.836,165.345C410.836,165.345 416.575,161.135 422.191,156.856C424.936,154.766 427.647,152.661 429.649,151.022C433.34,148 437.427,144.615 441.68,140.848C444.217,138.6 446.804,136.215 449.414,133.706C450.327,132.826 456.046,127.589 462.798,120.891C465.597,118.115 468.559,115.08 471.45,112.018C473.638,109.653 477.016,105.807 480.723,101.238C484.91,96.076 489.513,89.991 493.644,84.38L493.645,84.38C494.539,83.146 495.618,81.517 496.833,79.602C498.719,76.631 500.942,72.969 503.333,69.058C502.503,71.626 501.551,74.601 500.514,77.97C498.878,83.284 496.994,89.561 495.115,96.771C494.183,100.347 493.28,104.158 492.372,108.185C490.545,116.284 488.77,125.262 487.047,135.041C486.443,138.521 485.575,144.08 484.66,150.282C482.471,165.133 479.953,183.635 479.478,185.84C479.64,185.243 480.022,183.436 480.55,180.819C482.749,169.908 487.484,144.97 489.591,135.543C492.025,124.347 494.581,114.246 496.947,105.29C497.605,102.795 498.251,100.39 498.862,98.072C499.88,94.207 500.834,90.592 501.729,87.243C505.445,73.332 508.25,64.019 509.116,60.089L509.247,59.49C511.157,56.277 513.113,52.07 514.93,47.577C517.723,40.666 520.185,33.083 521.499,27.409C522.587,22.981 522.959,19.709 522.962,17.462C522.963,15.672 522.715,14.496 522.382,13.87C522.066,13.275 521.636,13.07 521.25,13.088C521.062,13.098 520.892,13.206 520.804,13.372C518.867,16.879 516.498,23.783 514.126,31.552C511.21,41.101 508.293,51.957 506.348,59.429L506.211,59.939ZM510.893,52.041C512.22,49.441 513.525,46.594 514.739,43.691C517.168,37.881 519.23,31.852 520.471,27.153C521.345,23.681 521.782,20.936 521.908,18.853C522.036,16.746 521.86,15.343 521.546,14.577C521.522,14.52 521.504,14.466 521.487,14.416C520.114,17.278 518.553,21.943 517.003,27.379C514.817,35.047 512.647,44.232 510.893,52.041Z"/>
                    </g>
                </g>
            </g>
        </g>
    </g>
</svg>
