<?xml version="1.0" encoding="UTF-8" standalone="no"?>
<!DOCTYPE svg PUBLIC "-//W3C//DTD SVG 1.1//EN" "http://www.w3.org/Graphics/SVG/1.1/DTD/svg11.dtd">
<svg width="100%" height="100%" viewBox="0 0 1425 1425" version="1.1" xmlns="http://www.w3.org/2000/svg" xmlns:xlink="http://www.w3.org/1999/xlink" xml:space="preserve" xmlns:serif="http://www.serif.com/" style="fill-rule:evenodd;clip-rule:evenodd;stroke-linejoin:round;stroke-miterlimit:2;">
    <g transform="matrix(4.16667,0,0,4.16667,454.814,1272)">
        <path d="M0,-268.534C-8.665,-264.42 -16.93,-259.477 -24.626,-253.774C-32.316,-248.064 -39.388,-241.544 -45.768,-234.431C-58.484,-220.153 -68.215,-203.342 -74.412,-185.398C-80.601,-167.441 -83.172,-148.339 -82.054,-129.528C-81.536,-120.117 -80.05,-110.783 -77.731,-101.676C-75.425,-92.565 -72.218,-83.69 -68.198,-75.203C-52.356,-41.096 -22.67,-13.908 12.628,-0.958C30.23,5.584 49.14,8.652 67.942,7.955C86.749,7.283 105.412,2.81 122.571,-5.041C139.714,-12.928 155.313,-24.175 168.143,-38.051C180.988,-51.907 191.063,-68.339 197.64,-86.094C204.212,-103.85 207.28,-122.914 206.553,-141.865C205.852,-160.818 201.319,-179.617 193.39,-196.889C185.501,-214.179 174.215,-229.941 160.26,-242.923C146.344,-255.94 129.823,-266.219 111.913,-272.96C93.987,-279.639 74.718,-282.826 55.544,-282.096C45.963,-281.703 36.412,-280.388 27.095,-278.097C17.779,-275.803 8.694,-272.585 0,-268.534M-0.296,-269.169C17.204,-277.248 36.263,-281.909 55.516,-282.781C74.765,-283.703 94.216,-280.847 112.417,-274.341C130.634,-267.893 147.621,-257.849 162.028,-244.851C176.437,-231.854 188.219,-215.939 196.563,-198.366C204.842,-180.762 209.677,-161.511 210.574,-142.035C211.499,-122.563 208.525,-102.906 201.913,-84.533C195.3,-66.163 185.052,-49.087 171.882,-34.62C158.732,-20.133 142.655,-8.311 124.934,0.036C107.218,8.392 87.83,13.287 68.208,14.214C48.589,15.169 28.776,12.195 10.251,5.551C-8.25,-1.144 -25.47,-11.465 -39.997,-24.787C-54.502,-38.133 -66.281,-54.392 -74.545,-72.25C-78.614,-81.209 -81.822,-90.555 -84.081,-100.121C-86.332,-109.69 -87.566,-119.482 -87.863,-129.282C-88.398,-148.892 -84.927,-168.512 -77.931,-186.682C-70.938,-204.865 -60.347,-221.561 -47.048,-235.606C-40.43,-242.661 -33.098,-249.018 -25.264,-254.648C-17.436,-260.289 -9.055,-265.151 -0.296,-269.169" style="fill:rgb(30,28,26);fill-rule:nonzero;"/>
    </g>
    <g transform="matrix(4.16667,0,0,4.16667,1056.91,297.283)">
        <path d="M0,163.042C-5.025,170.47 -12.337,176.238 -20.491,179.981C-28.671,183.747 -37.591,185.656 -46.517,186.396C-55.463,187.133 -64.473,186.691 -73.345,185.471C-82.225,184.252 -90.984,182.249 -99.553,179.647C-116.687,174.401 -133.071,166.872 -148.483,157.756C-163.893,148.623 -178.362,137.884 -191.544,125.674C-198.134,119.569 -204.383,113.077 -210.202,106.193C-216.021,99.313 -221.449,92.058 -226.204,84.334C-230.904,76.587 -235.124,68.464 -238.183,59.819C-241.271,51.207 -243.34,42.099 -243.621,32.776C-243.892,23.502 -242.366,13.899 -238.075,5.438C-237.022,3.326 -235.828,1.282 -234.472,-0.645C-233.127,-2.561 -231.712,-4.4 -230.143,-6.135C-227.04,-9.62 -223.423,-12.676 -219.471,-15.145C-215.526,-17.635 -211.233,-19.51 -206.827,-20.797C-202.423,-22.103 -197.92,-22.895 -193.422,-23.294C-184.414,-24.091 -175.468,-23.568 -166.628,-22.645L-166.663,-21.946C-175.532,-21.904 -184.415,-21.703 -193.035,-20.274C-197.335,-19.545 -201.569,-18.553 -205.588,-17.055C-207.604,-16.328 -209.555,-15.455 -211.44,-14.483C-213.332,-13.52 -215.153,-12.438 -216.87,-11.215C-220.325,-8.8 -223.395,-5.883 -226.046,-2.618C-227.392,-1.007 -228.62,0.73 -229.75,2.494C-230.874,4.247 -231.844,6.093 -232.687,7.991C-234.386,11.784 -235.509,15.819 -236.197,19.932C-236.845,24.058 -237.014,28.272 -236.764,32.482C-236.504,36.693 -235.89,40.901 -234.962,45.058C-233.999,49.209 -232.805,53.323 -231.338,57.359C-228.395,65.426 -224.654,73.263 -220.222,80.728C-215.798,88.197 -210.82,95.378 -205.351,102.191C-199.875,109 -193.935,115.454 -187.644,121.561C-175.036,133.744 -161.046,144.559 -146.103,153.827C-131.155,163.077 -115.206,170.797 -98.489,176.282C-90.14,179.036 -81.597,181.231 -72.921,182.646C-64.252,184.065 -55.436,184.723 -46.668,184.226C-37.92,183.726 -29.166,182.081 -21.1,178.616C-13.043,175.203 -5.741,169.802 -0.573,162.64L0,163.042Z" style="fill:rgb(30,28,26);fill-rule:nonzero;"/>
    </g>
    <g transform="matrix(4.16667,0,0,4.16667,369.255,1115.24)">
        <path d="M0,-162.102C2.517,-165.721 5.53,-168.99 8.927,-171.819C12.299,-174.69 16.158,-176.934 20.136,-178.853C24.121,-180.789 28.355,-182.153 32.639,-183.236L35.869,-183.992L39.134,-184.567C40.221,-184.782 41.317,-184.911 42.415,-185.038C43.512,-185.163 44.607,-185.319 45.708,-185.417C54.516,-186.169 63.39,-185.849 72.145,-184.739C80.896,-183.586 89.538,-181.681 98.003,-179.2C114.923,-174.175 131.121,-166.892 146.381,-158.051C161.644,-149.2 176.003,-138.771 189.108,-126.885C195.668,-120.952 201.911,-114.65 207.747,-107.966C213.589,-101.289 219.041,-94.24 223.936,-86.777C228.79,-79.293 233.04,-71.365 236.433,-63.02C238.131,-58.851 239.534,-54.543 240.698,-50.164C241.217,-47.954 241.78,-45.757 242.134,-43.502C242.588,-41.273 242.818,-38.994 243.092,-36.727C243.438,-32.164 243.522,-27.555 242.994,-22.957C242.442,-18.372 241.432,-13.812 239.79,-9.453C236.359,-0.814 230.606,6.995 223.046,12.273C219.314,14.949 215.278,17.128 211.077,18.803C206.873,20.486 202.506,21.608 198.125,22.438C189.331,24.022 180.414,24.067 171.688,23.157L171.724,22.458C180.445,22.313 189.144,21.541 197.436,19.316C201.567,18.206 205.629,16.86 209.43,15.009C213.228,13.167 216.829,10.986 220.052,8.365C226.554,3.176 231.313,-3.848 233.983,-11.562C235.251,-15.454 236.062,-19.492 236.422,-23.596C236.77,-27.707 236.565,-31.871 236.129,-36.005C235.129,-44.286 232.85,-52.462 229.667,-60.315C226.529,-68.185 222.65,-75.821 218.085,-83.063C209.091,-97.647 197.84,-110.903 185.306,-122.774C172.746,-134.634 158.865,-145.153 144.059,-154.139C129.254,-163.116 113.484,-170.589 96.976,-175.853C88.731,-178.501 80.301,-180.588 71.747,-181.938C63.193,-183.246 54.511,-183.78 45.877,-183.267C37.274,-182.645 28.655,-181.01 20.75,-177.502C16.818,-175.748 12.984,-173.673 9.608,-170.967C6.209,-168.302 3.158,-165.189 0.573,-161.7L0,-162.102Z" style="fill:rgb(30,28,26);fill-rule:nonzero;"/>
    </g>
    <g transform="matrix(4.16667,0,0,4.16667,706.226,501.832)">
        <path d="M0,108.666C0,108.666 93.654,0 -0.501,0C-94.656,0 0,108.666 0,108.666" style="fill:rgb(30,28,26);fill-rule:nonzero;"/>
    </g>
</svg>
